<svg height="508pt" viewBox="-41 0 508 508.44" width="508pt" xmlns="http://www.w3.org/2000/svg"><path d="m367.546875 67.886719h-309.332031c-27.613282 0-50 22.386719-50 50v188c0 27.613281 22.386718 50 50 50h309.332031c27.613281 0 50-22.386719 50-50v-188c0-27.613281-22.386719-50-50-50zm0 0" fill="#87828e"/><path d="m337.652344 400.792969-25.78125-14.886719c-4.90625-2.832031-7.632813-8.371094-6.792969-13.972656.667969-4.445313 1.019531-8.992188 1.019531-13.621094 0-4.417969-.320312-8.757812-.933594-13-.808593-5.59375 1.902344-11.105469 6.796876-13.933594l28.003906-16.167968c6.640625-3.832032 8.914062-12.320313 5.082031-18.957032l-12.027344-20.832031c-3.832031-6.640625-12.320312-8.914063-18.960937-5.082031l-28.59375 16.507812c-4.789063 2.765625-10.816406 2.503906-15.214844-.851562-6.28125-4.785156-13.203125-8.773438-20.613281-11.808594-5.214844-2.140625-8.539063-7.320312-8.539063-12.960938v-35.683593c0-7.664063-6.214844-13.878907-13.878906-13.878907h-24.054688c-7.664062 0-13.878906 6.214844-13.878906 13.878907v35.839843c0 5.582032-3.324218 10.671876-8.492187 12.785157-6.734375 2.757812-13.0625 6.296875-18.871094 10.507812-4.386719 3.179688-10.257813 3.394531-14.949219.6875l-32.960937-19.027343c-6.636719-3.832032-15.125-1.558594-18.957031 5.078124l-12.027344 20.832032c-3.832032 6.636718-1.558594 15.125 5.078125 18.957031l30.707031 17.730469c5.019531 2.894531 7.699219 8.605468 6.734375 14.324218-.824219 4.894532-1.257813 9.925782-1.257813 15.054688 0 2.367188.097657 4.714844.28125 7.035156.417969 5.304688-2.285156 10.371094-6.894531 13.03125l-31.882812 18.410156c-6.636719 3.832032-8.910157 12.320313-5.078125 18.957032l12.027344 20.832031c3.832031 6.636719 12.320312 8.910156 18.957031 5.078125l27.996093-16.164062c5.136719-2.964844 11.570313-2.3125 16.050782 1.566406 6.320312 5.46875 13.394531 10.082031 21.054687 13.65625 4.832031 2.253906 7.859375 7.171875 7.859375 12.5v33.238281c0 7.664063 6.214844 13.878906 13.878906 13.878906h24.054688c7.664062 0 13.878906-6.214843 13.878906-13.878906v-29.441406c0-5.839844 3.644532-11.085938 9.148438-13.039063 8.742187-3.101562 16.871094-7.503906 24.152344-12.972656 4.398437-3.304688 10.371093-3.578125 15.136718-.828125l26.835938 15.492187c6.640625 3.832032 15.128906 1.558594 18.960937-5.078124l12.027344-20.832032c3.832031-6.640625 1.558594-15.128906-5.082031-18.960937zm0 0" fill="#f973a3"/><path d="m252.425781 395.539062c-20.554687 20.554688-53.894531 20.554688-74.449219 0-20.574218-20.554687-20.574218-53.890624 0-74.445312 20.554688-20.574219 53.894532-20.574219 74.449219 0 20.550781 20.554688 20.550781 53.890625 0 74.445312zm0 0" fill="#ea2a6a"/><path d="m207.980469 321.101562c6.417969-6.421874 14.058593-10.839843 22.199219-13.261718-17.898438-5.320313-38.058594-.878906-52.199219 13.261718-20.582031 20.539063-20.582031 53.878907 0 74.4375 14.140625 14.140626 34.300781 18.5625 52.199219 13.261719-8.140626-2.441406-15.78125-6.839843-22.199219-13.261719-20.582031-20.558593-20.582031-53.898437 0-74.4375zm0 0" fill="#ff4a73"/><path d="m88.21875 355.878906h-30c-27.617188 0-50-22.378906-50-50v-188c0-27.597656 22.382812-50 50-50h30c-27.617188 0-50 22.402344-50 50v188c0 27.621094 22.382812 50 50 50zm0 0" fill="#a4a4a5"/><path d="m417.539062 117.878906v188c0 27.621094-22.378906 50-50 50h-30c27.621094 0 50-22.378906 50-50v-188c0-27.597656-22.378906-50-50-50h30c27.621094 0 50 22.402344 50 50zm0 0" fill="#796e84"/><path d="m417.546875 184.886719h-409.332031v-67c0-27.613281 22.386718-50 50-50h309.332031c27.613281 0 50 22.386719 50 50zm0 0" fill="#b76c6c"/><path d="m92.378906 228.867188c-11.042968 0-20-8.957032-20-20v-48c0-11.046876 8.957032-20 20-20 11.046875 0 20 8.953124 20 20v48c0 11.042968-8.953125 20-20 20zm0 0" fill="#f2c300"/><path d="m333.378906 228.867188c-11.042968 0-20-8.957032-20-20v-48c0-11.046876 8.957032-20 20-20 11.046875 0 20 8.953124 20 20v48c0 11.042968-8.953125 20-20 20zm0 0" fill="#f2c300"/><path d="m8.21875 117.878906v67h30v-67c0-27.597656 22.382812-50 50-50h-30c-27.617188 0-50 22.402344-50 50zm0 0" fill="#c98585"/><path d="m367.539062 67.878906h-30c27.621094 0 50 22.402344 50 50v67h30v-67c0-27.597656-22.378906-50-50-50zm0 0" fill="#965959"/><path d="m92.378906 140.859375c-11.039062 0-20 8.960937-20 20v24.019531h40v-24.019531c0-5.519531-2.238281-10.519531-5.859375-14.140625-3.621093-3.617188-8.621093-5.859375-14.140625-5.859375zm0 0" fill="#f9d335"/><path d="m347.519531 146.71875c-3.621093-3.617188-8.621093-5.859375-14.140625-5.859375-11.039062 0-20 8.960937-20 20v24.019531h40v-24.019531c0-5.519531-2.238281-10.519531-5.859375-14.140625zm0 0" fill="#f9d335"/><g fill="#5f266d"><path d="m154.546875 358.429688c0 54.269531 65.773437 80.636718 103.53125 42.878906 23.644531-23.644532 23.640625-62.113282.003906-85.757813-38.382812-38.417969-103.535156-10.5625-103.535156 42.878907zm92.222656 31.566406c-28.160156 28.15625-76.222656 7.871094-76.222656-31.566406 0-39.230469 47.886719-59.925782 76.21875-31.570313 0 0 0 .003906.003906.003906 17.402344 17.40625 17.402344 45.726563 0 63.132813zm0 0"/><path d="m367.539062 60h-69.160156v-32c0-15.441406-12.558594-28-28-28h-115c-15.4375 0-28 12.558594-28 28v32h-69.160156c-31.980469 0-58 26.019531-58 58v188c0 31.980469 26.019531 58 58 58h58.253906c.441406 7.675781 1.796875 4.910156-34.679687 25.96875-10.472657 6.046875-14.054688 19.410156-8.007813 29.886719l12.027344 20.832031c6.046875 10.46875 19.414062 14.054688 29.886719 8.007812l27.996093-16.164062c2.164063-1.25 4.902344-.972656 6.816407.683594 6.929687 6 14.636719 10.996094 22.910156 14.855468 1.96875.921876 3.238281 2.984376 3.238281 5.253907v33.238281c0 12.0625 9.816406 21.878906 21.878906 21.878906h24.058594c12.0625 0 21.875-9.816406 21.875-21.878906v-29.441406c0-2.480469 1.539063-4.6875 3.824219-5.5 9.429687-3.34375 18.269531-8.09375 26.285156-14.117188 1.808594-1.359375 4.292969-1.472656 6.332031-.292968l26.835938 15.492187c10.453125 6.03125 23.855469 2.441406 29.886719-8.007813l12.027343-20.832031c6.042969-10.476562 2.460938-23.84375-8.007812-29.886719-34.558594-19.953124-28.679688-13.03125-27.730469-29.976562h53.617188c31.980469 0 58-26.019531 58-58 0-20.289062 0-167.703125 0-188-.003907-31.980469-26.019531-58-58.003907-58zm-224.160156-32c0-6.617188 5.382813-12 12-12h115c6.617188 0 12 5.382812 12 12v32h-139zm153.867188 318.5625c1.15625 8.03125 1.132812 16.257812-.074219 24.289062-1.339844 8.894532 2.863281 17.570313 10.703125 22.09375l25.78125 14.882813c2.808594 1.621094 3.78125 5.210937 2.152344 8.03125l-12.027344 20.835937c-1.625 2.8125-5.21875 3.777344-8.03125 2.152344l-26.835938-15.496094c-7.601562-4.390624-17-3.859374-23.945312 1.359376-6.710938 5.046874-14.121094 9.027343-22.019531 11.832031-8.65625 3.070312-14.472657 11.339843-14.472657 20.578125v29.441406c0 3.242188-2.636718 5.878906-5.878906 5.878906h-24.058594c-3.242187 0-5.878906-2.636718-5.878906-5.878906v-33.238281c0-8.457031-4.894531-16.210938-12.472656-19.75-6.929688-3.234375-13.390625-7.425781-19.203125-12.453125-4.089844-3.546875-9.222656-5.363282-14.382813-5.363282-3.746093 0-7.511718.957032-10.902343 2.917969l-28 16.164063c-2.808594 1.621094-6.410157.65625-8.03125-2.152344l-12.027344-20.832031c-1.621094-2.804688-.65625-6.410157 2.152344-8.03125l31.882812-18.40625c7.261719-4.191407 11.527344-12.273438 10.871094-20.59375-.507813-6.460938-.222656-13.511719.890625-20.128907 1.507812-8.96875-2.757812-18.042968-10.625-22.582031l-30.707031-17.730469c-2.808594-1.617187-3.773438-5.222656-2.152344-8.027343l12.027344-20.835938c1.628906-2.820312 5.222656-3.773437 8.03125-2.152343l32.960937 19.03125c7.460938 4.308593 16.742188 3.863281 23.640625-1.136719 5.339844-3.871094 11.128907-7.097657 17.210938-9.582031 8.179687-3.351563 13.460937-11.273438 13.460937-20.191407v-35.835937c0-3.242188 2.636719-5.878906 5.878906-5.878906h24.054688c3.242188 0 5.878906 2.636718 5.878906 5.878906v35.683594c0 9.007812 5.300782 17 13.507813 20.359374 6.695312 2.746094 13.019531 6.367188 18.792969 10.773438 6.945312 5.292969 16.390624 5.847656 24.066406 1.414062 31.035156-17.914062 29.898437-17.941406 33.054687-17.09375 1.515625.40625 2.785157 1.378907 3.570313 2.738282l12.027344 20.835937c1.621093 2.804688.65625 6.410157-2.152344 8.027344l-28.003906 16.167969c-7.789063 4.5-11.996094 13.136718-10.714844 22.003906zm112.292968-40.5625c0 23.160156-18.839843 42-42 42h-53.996093c-1.054688-9.984375-3.527344-6.148438 30.425781-25.753906 10.445312-6.03125 14.039062-19.4375 8.003906-29.882813l-12.027344-20.835937c-6.03125-10.449219-19.4375-14.042969-29.886718-8.007813l-28.59375 16.507813c-2.039063 1.179687-4.597656 1.066406-6.363282-.285156-6.890624-5.253907-14.441406-9.578126-22.429687-12.851563-2.136719-.875-3.574219-3.109375-3.574219-5.554687v-35.6875c0-12.0625-9.8125-21.875-21.878906-21.875h-24.054688c-12.0625 0-21.878906 9.8125-21.878906 21.875v35.839843c0 2.355469-1.414062 4.519531-3.519531 5.378907-7.257813 2.972656-14.167969 6.820312-20.542969 11.433593-1.792968 1.300781-4.246094 1.394531-6.25.242188-34.542968-19.945313-38.398437-24.210938-49.5625-21.21875-5.644531 1.511719-10.363281 5.132812-13.285156 10.195312l-12.027344 20.832031c-6.042968 10.46875-2.464844 23.839844 8.007813 29.882813 38.425781 22.1875 34.148437 16.691406 32.761719 29.757813h-58.648438c-23.160156 0-42-18.839844-42-42v-113h48.160156v15.980468c0 15.4375 12.5625 28 28 28 15.441406 0 28-12.5625 28-28v-15.972656h185v15.976562c0 15.441407 12.5625 28 28 28 15.441406 0 28-12.558593 28-28v-15.976562h48.160156zm-329.160156-97.023438v-48c0-6.617187 5.382813-12 12-12 6.617188 0 12 5.382813 12 12v48c0 6.621094-5.382812 12-12 12-6.617187 0-12-5.378906-12-12zm241 0v-48c0-6.617187 5.382813-12 12-12 6.617188 0 12 5.382813 12 12v48c0 6.621094-5.382812 12-12 12-6.617187 0-12-5.378906-12-12zm88.160156-31.976562h-48.160156v-16.023438c0-15.4375-12.558594-28-28-28-15.4375 0-28 12.5625-28 28v16.023438h-185v-16.023438c0-15.4375-12.558594-28-28-28-15.4375 0-28 12.5625-28 28v16.023438h-48.160156v-59c0-23.160156 18.839844-42 42-42h309.320312c23.160157 0 42 18.839844 42 42zm0 0"/></g></svg>